<?xml version="1.0" encoding="UTF-8" standalone="yes"?>
<svg xmlns="http://www.w3.org/2000/svg" height="452" width="452">
<script type="text/ecmascript">
      <![CDATA[
        var shown = 1;
        function click() {
             var seq = document.getElementById("seq");
             if (shown==1) {
               seq.setAttribute("style", "visibility: hidden");
               shown = 0;
             } else {
               seq.setAttribute("style", "visibility: visible");
               shown = 1;
             }
         }
        ]]>
</script>
  <rect style="stroke: white; fill: white" height="452" x="0" y="0" width="452" onclick="click(evt)" />
  <g transform="scale(0.268612,0.268612) translate(487.145996,719.850220)">
    <polyline style="stroke: black; fill: none; stroke-width: 1.5" id="outline" points="
      88.009,16.725
      87.640,31.721
      87.271,46.716
      79.774,46.532
      78.594,31.578
      77.415,16.624
      76.236,1.671
      75.056,-13.283
      86.334,-24.115
      87.959,-39.668
      79.164,-52.598
      64.101,-56.799
      49.883,-50.289
      43.223,-36.140
      47.266,-21.034
      60.103,-12.103
      61.282,2.850
      62.461,17.804
      63.641,32.757
      64.820,47.711
      49.851,60.082
      38.203,74.532
      30.098,90.268
      17.395,82.291
      4.693,74.313
      -8.010,66.336
      -20.713,58.358
      -33.416,50.381
      -46.118,42.403
      -58.821,34.426
      -71.524,26.448
      -72.531,3.702
      -98.665,-9.753
      -109.830,-19.771
      -120.994,-29.788
      -132.159,-39.805
      -143.324,-49.823
      -154.488,-59.840
      -165.637,-69.876
      -176.768,-79.930
      -172.055,-89.822
      -172.033,-101.849
      -177.584,-113.717
      -188.460,-122.818
      -203.200,-126.776
      -213.254,-137.908
      -223.309,-149.039
      -226.677,-157.390
      -233.414,-160.191
      -243.504,-171.290
      -253.595,-182.389
      -238.961,-200.744
      -239.554,-229.596
      -261.421,-256.095
      -266.945,-270.041
      -264.017,-286.177
      -276.701,-296.572
      -291.948,-290.533
      -294.073,-274.273
      -280.891,-264.518
      -275.367,-250.572
      -281.732,-246.604
      -289.667,-259.333
      -297.603,-272.061
      -310.332,-264.125
      -302.396,-251.397
      -294.460,-238.668
      -300.825,-234.700
      -310.915,-245.799
      -321.006,-256.898
      -314.356,-261.973
      -308.876,-269.307
      -305.266,-278.588
      -304.129,-289.299
      -305.923,-300.752
      -310.910,-312.129
      -319.120,-322.535
      -330.337,-331.066
      -338.849,-343.417
      -347.361,-355.768
      -348.820,-371.522
      -362.413,-377.611
      -363.873,-393.365
      -377.466,-399.454
      -385.978,-411.805
      -394.489,-424.157
      -403.001,-436.508
      -396.953,-450.700
      -399.560,-465.906
      -409.991,-477.272
      -424.917,-481.173
      -439.575,-476.363
      -449.288,-464.378
      -450.957,-449.041
      -444.049,-435.247
      -430.768,-427.397
      -415.352,-427.996
      -406.841,-415.645
      -398.329,-403.294
      -389.817,-390.943
      -388.966,-376.072
      -374.765,-369.100
      -373.914,-354.229
      -359.712,-347.257
      -351.200,-334.905
      -342.689,-322.554
      -348.392,-317.684
      -358.132,-329.092
      -369.540,-319.352
      -359.800,-307.944
      -365.504,-303.074
      -370.164,-318.194
      -384.717,-321.365
      -395.565,-331.726
      -406.395,-342.104
      -400.534,-356.104
      -400.131,-371.277
      -405.240,-385.569
      -415.170,-397.048
      -428.577,-404.161
      -443.650,-405.947
      -458.348,-402.164
      -470.685,-393.323
      -478.992,-380.620
      -482.146,-365.774
      -479.720,-350.791
      -472.041,-337.699
      -460.150,-328.267
      -445.653,-323.772
      -430.511,-324.822
      -416.773,-331.273
      -405.943,-320.895
      -403.320,-314.088
      -395.060,-310.501
      -391.177,-296.121
      -375.846,-292.210
      -380.613,-286.419
      -390.145,-274.838
      -394.911,-269.047
      -395.613,-282.422
      -403.739,-292.823
      -416.175,-296.628
      -428.361,-292.672
      -440.628,-301.305
      -450.101,-315.365
      -466.234,-310.154
      -465.693,-293.209
      -449.260,-289.038
      -436.994,-280.405
      -434.778,-263.676
      -420.838,-253.577
      -403.584,-256.809
      -378.209,-235.196
      -350.394,-233.659
      -332.105,-246.807
      -322.014,-235.708
      -311.924,-224.610
      -316.536,-218.696
      -331.392,-220.772
      -325.762,-206.868
      -330.375,-200.955
      -343.596,-208.039
      -351.777,-222.252
      -368.174,-222.003
      -375.920,-207.548
      -367.045,-193.757
      -350.681,-194.818
      -337.459,-187.733
      -326.945,-172.858
      -313.292,-163.054
      -298.508,-158.707
      -284.504,-159.493
      -272.870,-164.479
      -264.693,-172.298
      -254.603,-161.199
      -244.513,-150.101
      -234.440,-138.985
      -224.386,-127.854
      -214.332,-116.722
      -218.227,-110.312
      -231.046,-118.101
      -243.865,-125.891
      -256.684,-133.680
      -264.473,-120.860
      -251.654,-113.072
      -238.835,-105.282
      -226.016,-97.493
      -229.911,-91.084
      -241.304,-102.061
      -255.575,-97.795
      -270.087,-101.590
      -274.947,-111.142
      -284.037,-116.396
      -294.304,-115.860
      -302.445,-109.945
      -313.911,-120.847
      -328.153,-116.488
      -342.690,-120.188
      -357.226,-123.888
      -368.583,-135.718
      -384.440,-131.536
      -388.485,-115.644
      -376.557,-104.390
      -360.926,-109.351
      -346.390,-105.652
      -331.853,-101.952
      -321.427,-91.314
      -306.145,-95.409
      -293.177,-80.969
      -273.882,-87.078
      -259.370,-83.283
      -249.015,-72.578
      -233.706,-76.572
      -209.206,-60.840
      -186.822,-68.798
      -175.691,-58.744
      -172.868,-52.017
      -164.506,-48.676
      -153.341,-38.658
      -142.176,-28.641
      -131.012,-18.623
      -119.847,-8.606
      -108.682,1.412
      -111.063,8.524
      -125.287,3.762
      -139.512,-0.999
      -144.273,13.226
      -130.049,17.987
      -115.824,22.748
      -118.205,29.860
      -133.151,31.138
      -148.096,32.415
      -163.042,33.692
      -177.987,34.970
      -192.958,35.904
      -207.946,36.494
      -222.935,37.084
      -228.653,23.045
      -238.829,11.811
      -252.236,4.738
      -267.254,2.680
      -282.070,5.885
      -294.894,13.967
      -304.178,25.949
      -308.801,40.385
      -308.205,55.532
      -302.461,69.560
      -292.264,80.776
      -278.844,87.824
      -263.822,89.855
      -249.012,86.622
      -236.203,78.517
      -226.941,66.517
      -222.345,52.072
      -207.356,51.482
      -192.368,50.892
      -205.789,57.591
      -215.637,68.905
      -220.423,83.121
      -219.421,98.088
      -212.783,111.539
      -201.514,121.440
      -187.320,126.290
      -172.349,125.357
      -158.868,118.780
      -148.916,107.557
      -144.001,93.385
      -144.866,78.410
      -151.380,64.899
      -162.558,54.896
      -176.710,49.915
      -161.764,48.638
      -146.819,47.360
      -131.873,46.083
      -116.928,44.806
      -94.294,49.703
      -79.501,39.151
      -66.798,47.128
      -54.096,55.106
      -41.393,63.083
      -28.690,71.061
      -15.988,79.038
      -3.285,87.016
      9.418,94.993
      22.121,102.971
      15.065,121.682
      12.438,141.506
      14.376,161.410
      20.780,180.354
      31.313,197.353
      45.429,211.518
      37.121,224.007
      28.813,236.496
      20.505,248.985
      16.848,244.544
      11.719,240.884
      5.304,238.394
      -2.119,237.414
      -10.192,238.218
      -18.493,240.996
      -26.555,245.842
      -37.554,256.041
      -48.553,266.241
      -59.552,276.440
      -70.551,286.639
      -81.550,296.838
      -99.640,300.577
      -104.034,317.623
      -115.066,327.786
      -123.381,322.749
      -132.576,319.627
      -142.218,318.564
      -151.852,319.603
      -161.024,322.693
      -169.306,327.683
      -176.308,334.334
      -181.706,342.331
      -185.247,351.293
      -186.771,360.798
      -186.210,370.397
      -183.594,379.640
      -179.051,388.091
      -189.847,398.504
      -200.644,408.918
      -211.440,419.332
      -222.236,429.745
      -233.032,440.159
      -243.828,450.572
      -238.115,436.703
      -241.523,422.095
      -252.782,412.184
      -267.705,410.659
      -280.737,418.086
      -287.029,431.702
      -298.389,441.498
      -313.893,444.651
      -318.478,458.822
      -329.838,468.618
      -341.198,478.414
      -359.410,481.498
      -364.416,498.374
      -375.808,508.133
      -387.200,517.891
      -398.591,527.650
      -414.328,526.183
      -426.438,536.337
      -427.738,552.088
      -417.456,564.091
      -401.693,565.224
      -389.800,554.816
      -388.833,539.041
      -377.441,529.283
      -366.049,519.524
      -354.658,509.766
      -342.658,510.402
      -333.101,502.475
      -331.402,489.774
      -320.042,479.978
      -308.682,470.182
      -293.991,467.730
      -288.593,452.858
      -277.233,443.062
      -271.759,448.189
      -282.012,459.137
      -292.265,470.086
      -302.518,481.035
      -312.772,491.983
      -323.025,502.932
      -333.278,513.881
      -322.329,524.134
      -312.076,513.185
      -301.823,502.236
      -291.570,491.288
      -281.317,480.339
      -271.063,469.390
      -260.810,458.442
      -255.336,463.568
      -264.366,475.546
      -279.666,481.448
      -281.937,497.689
      -268.843,507.562
      -253.854,500.909
      -252.389,484.576
      -243.359,472.599
      -233.415,461.368
      -222.619,450.955
      -211.822,440.541
      -201.026,430.128
      -190.230,419.714
      -179.434,409.301
      -168.638,398.887
      -149.971,406.918
      -129.634,405.757
      -111.919,395.604
      -100.583,378.564
      -98.052,358.206
      -104.903,338.818
      -93.871,328.655
      -81.856,328.858
      -72.591,320.592
      -71.351,307.837
      -60.352,297.638
      -49.353,287.439
      -38.354,277.240
      -27.355,267.040
      -16.356,256.841
      -10.031,260.872
      -18.092,273.522
      -5.441,281.582
      2.619,268.932
      8.944,272.963
      4.346,287.240
      -0.252,301.518
      -4.849,315.796
      -9.447,330.074
      -14.045,344.352
      -17.724,347.696
      -19.641,351.699
      -19.833,355.610
      -18.617,358.793
      -23.074,373.116
      -37.622,378.183
      -46.295,390.698
      -45.940,405.742
      -36.902,417.552
      -41.360,431.874
      -45.817,446.197
      -50.274,460.519
      -65.171,464.528
      -75.520,475.969
      -78.017,491.193
      -71.867,505.341
      -59.031,513.899
      -43.605,514.136
      -30.512,505.976
      -23.930,492.024
      -25.959,476.730
      -35.951,464.976
      -31.494,450.654
      -27.037,436.331
      -22.580,422.009
      -8.437,417.413
      0.392,405.227
      0.352,390.000
      -8.752,377.573
      -4.295,363.251
      0.233,348.950
      4.831,334.672
      9.429,320.394
      14.026,306.116
      18.624,291.838
      23.222,277.560
      19.928,292.194
      19.339,307.183
      21.474,322.030
      26.263,336.245
      33.547,349.358
      43.085,360.935
      54.562,370.593
      67.598,378.012
      81.763,382.948
      96.587,385.238
      111.581,384.804
      126.248,381.663
      140.104,375.917
      152.690,367.756
      163.590,357.452
      172.444,345.343
      178.958,331.832
      182.918,317.364
      184.192,302.418
      182.738,287.489
      178.605,273.069
      171.928,259.637
      162.929,247.636
      151.906,237.464
      139.222,229.455
      125.298,223.877
      110.594,220.912
      95.596,220.659
      80.801,223.127
      66.697,228.233
      53.751,235.809
      42.391,245.605
      32.994,257.293
      41.302,244.804
      49.610,232.315
      57.918,219.826
      81.474,228.617
      106.557,230.353
      108.957,245.160
      111.357,259.967
      100.728,267.053
      93.559,277.569
      90.866,289.960
      93.009,302.412
      99.640,313.112
      109.762,320.516
      121.878,323.574
      124.375,338.365
      126.872,353.155
      129.369,367.946
      123.144,383.118
      133.383,395.927
      149.553,393.197
      155.020,377.736
      144.159,365.449
      141.662,350.658
      139.165,335.867
      136.668,321.077
      150.380,310.494
      156.804,294.313
      154.058,277.030
      142.819,263.499
      126.164,257.567
      123.764,242.760
      121.364,227.954
      130.552,225.097
      139.372,221.250
      147.717,216.458
      155.485,210.780
      162.584,204.283
      168.927,197.047
      174.438,189.159
      179.050,180.714
      182.708,171.814
      197.244,175.514
      211.775,179.237
      226.299,182.985
      233.713,188.097
      240.877,186.721
      255.414,190.421
      269.950,194.120
      284.487,197.820
      299.023,201.520
      313.560,205.220
      328.096,208.920
      342.633,212.620
      343.691,234.005
      351.984,253.724
      366.500,269.410
      385.484,279.184
      406.645,281.882
      427.435,277.194
      445.357,265.697
      458.260,248.785
      472.312,254.033
      486.364,259.281
      500.416,264.529
      514.468,269.778
      498.019,291.829
      503.516,327.339
      537.701,357.974
      550.558,365.700
      563.415,373.426
      576.273,381.152
      589.130,388.878
      601.987,396.604
      614.844,404.330
      627.702,412.056
      640.546,419.803
      653.378,427.571
      650.010,439.469
      652.725,452.952
      662.115,464.842
      677.118,471.835
      685.831,484.045
      694.544,496.255
      703.257,508.465
      698.209,523.138
      702.781,537.966
      715.216,547.247
      730.733,547.413
      743.363,538.400
      748.252,523.673
      743.519,508.896
      730.984,499.750
      715.467,499.752
      706.754,487.542
      698.041,475.332
      689.328,463.122
      694.198,457.418
      705.605,467.158
      717.013,476.898
      728.421,486.638
      738.160,475.230
      726.753,465.490
      715.345,455.750
      703.938,446.011
      708.807,440.307
      722.232,446.998
      735.657,453.689
      749.082,460.380
      762.507,467.072
      775.932,473.763
      789.357,480.454
      788.010,489.451
      788.762,498.504
      791.566,507.129
      796.268,514.869
      802.611,521.313
      810.251,526.123
      818.778,529.047
      827.734,529.935
      836.642,528.746
      845.026,525.550
      852.442,520.524
      858.497,513.940
      872.072,520.321
      878.406,526.721
      885.702,526.701
      899.298,533.038
      903.272,538.065
      908.402,540.116
      913.003,539.371
      926.641,545.619
      940.278,551.866
      953.915,558.114
      967.521,564.428
      981.096,570.809
      994.671,577.191
      1008.235,583.594
      1017.390,596.498
      1032.205,594.958
      1030.147,609.987
      1035.087,625.316
      1046.812,637.686
      1063.603,644.121
      1082.465,642.618
      1095.663,649.746
      1093.024,661.362
      1095.571,674.005
      1103.626,685.315
      1116.432,692.883
      1132.191,694.736
      1145.222,702.165
      1158.253,709.594
      1166.058,724.016
      1182.457,724.197
      1190.578,709.950
      1182.069,695.932
      1165.682,696.562
      1152.651,689.133
      1139.620,681.705
      1143.118,675.071
      1150.116,661.803
      1153.615,655.169
      1162.349,669.049
      1178.724,668.155
      1185.894,653.406
      1176.484,639.976
      1160.174,641.679
      1146.698,627.699
      1129.542,622.630
      1113.614,626.386
      1102.791,636.547
      1089.593,629.420
      1092.616,622.556
      1106.343,628.601
      1121.255,626.973
      1112.389,614.874
      1098.661,608.828
      1101.684,601.964
      1115.853,606.888
      1130.021,611.813
      1140.329,624.567
      1156.485,621.751
      1161.868,606.260
      1150.942,594.032
      1134.946,597.644
      1120.777,592.720
      1106.608,587.795
      1097.571,575.227
      1085.200,567.026
      1071.345,563.885
      1057.909,565.779
      1046.581,572.021
      1038.631,581.404
      1030.445,568.961
      1014.661,570.040
      1010.022,564.410
      1001.052,563.616
      987.477,557.234
      973.902,550.853
      972.375,547.807
      969.360,545.308
      965.112,544.020
      960.162,544.477
      946.525,538.229
      932.888,531.982
      919.251,525.734
      905.634,519.442
      892.039,513.105
      878.453,506.746
      864.878,500.365
      864.414,479.449
      853.106,461.755
      834.180,452.480
      813.113,454.397
      796.048,467.029
      782.623,460.338
      769.198,453.647
      755.773,446.956
      742.349,440.264
      728.924,433.573
      715.499,426.882
      699.401,407.455
      677.352,404.083
      661.146,414.740
      648.314,406.971
      644.271,400.899
      635.428,399.199
      622.570,391.473
      609.713,383.747
      596.856,376.021
      583.999,368.295
      571.141,360.569
      558.284,352.843
      545.427,345.117
      547.134,337.813
      561.740,341.227
      576.096,336.879
      565.153,326.620
      550.547,323.207
      552.253,315.904
      567.203,314.675
      582.152,313.447
      597.102,312.219
      612.052,310.990
      628.333,315.719
      637.384,301.383
      626.114,288.717
      610.823,296.041
      595.874,297.269
      580.924,298.497
      565.974,299.726
      551.025,300.954
      549.764,293.561
      564.551,291.039
      579.337,288.518
      594.124,285.997
      608.911,283.475
      606.389,268.689
      591.603,271.210
      576.816,273.732
      562.030,276.253
      547.243,278.774
      545.982,271.381
      560.494,267.586
      575.006,263.791
      589.518,259.996
      604.827,263.990
      615.183,253.284
      629.695,249.489
      643.205,257.688
      658.537,253.852
      666.593,240.255
      662.595,224.965
      648.913,217.053
      633.666,221.213
      625.899,234.977
      611.388,238.772
      597.117,234.506
      585.723,245.484
      571.211,249.279
      556.699,253.074
      542.187,256.869
      554.720,248.627
      561.744,235.373
      561.526,220.375
      554.120,207.330
      541.353,199.456
      526.372,198.695
      512.872,205.233
      504.181,217.458
      502.443,232.357
      508.085,246.256
      519.716,255.726
      505.664,250.477
      491.613,245.229
      477.561,239.981
      463.509,234.733
      464.688,228.303
      465.177,221.785
      464.968,215.251
      464.065,208.777
      462.477,202.436
      460.224,196.300
      473.181,188.743
      489.000,188.475
      496.097,175.379
      509.054,167.823
      522.012,160.266
      534.969,152.709
      548.665,159.810
      564.024,158.356
      576.144,148.811
      581.159,134.221
      577.467,119.242
      566.247,108.653
      551.080,105.834
      536.804,111.683
      527.976,124.335
      527.412,139.752
      514.455,147.308
      501.497,154.865
      488.540,162.422
      473.648,162.150
      465.625,175.786
      452.667,183.343
      446.016,175.891
      438.239,169.613
      429.541,164.680
      420.152,161.221
      410.320,159.332
      400.306,159.064
      390.376,160.427
      380.794,163.385
      371.814,167.862
      363.675,173.741
      356.594,180.867
      350.762,189.053
      346.333,198.083
      331.796,194.383
      317.260,190.683
      302.723,186.984
      288.187,183.284
      273.650,179.584
      259.114,175.884
      244.577,172.184
      230.047,168.461
      215.522,164.713
      209.902,160.061
      200.944,160.977
      186.408,157.277
      188.110,151.435
      189.413,145.427
      190.302,139.280
      190.765,133.023
      190.791,126.686
      190.371,120.299
      189.498,113.895
      188.169,107.505
      186.380,101.162
      184.133,94.900
      181.430,88.751
      178.277,82.750
      174.680,76.928
      170.651,71.319
      166.201,65.955
      173.545,52.876
      180.888,39.796
      194.390,31.550
      193.874,16.665
      201.218,3.585
      215.118,9.274
      229.612,13.211
      244.480,15.337
      259.497,15.620
      274.434,14.056
      289.066,10.667
      303.171,5.506
      316.535,-1.349
      328.955,-9.794
      340.243,-19.702
      350.227,-30.922
      358.758,-43.284
      365.704,-56.600
      370.961,-70.669
      374.450,-85.278
      376.117,-100.204
      375.936,-115.222
      373.912,-130.105
      370.074,-144.625
      364.481,-158.564
      357.217,-171.710
      348.392,-183.864
      338.141,-194.841
      326.619,-204.475
      314.000,-212.620
      300.476,-219.152
      286.251,-223.973
      271.542,-227.010
      256.571,-228.215
      241.565,-227.572
      226.753,-225.090
      212.357,-220.806
      198.598,-214.785
      185.682,-207.119
      173.806,-197.924
      163.150,-187.340
      153.876,-175.526
      146.124,-162.662
      140.012,-148.942
      135.632,-134.576
      133.050,-119.780
      132.307,-104.779
      133.413,-89.801
      136.350,-75.072
      141.076,-60.815
      147.518,-47.247
      155.579,-34.574
      165.135,-22.988
      176.044,-12.664
      188.138,-3.758
      180.795,9.321
      167.817,16.632
      167.808,32.453
      160.465,45.532
      153.122,58.612
      146.002,56.255
      150.716,42.015
      155.431,27.775
      160.146,13.535
      164.861,-0.704
      169.575,-14.944
      174.290,-29.184
      179.005,-43.424
      164.765,-48.138
      160.050,-33.899
      155.336,-19.659
      150.621,-5.419
      145.906,8.821
      141.191,23.060
      136.477,37.300
      131.762,51.540
      124.642,49.183
      126.555,34.305
      128.468,19.428
      130.382,4.550
      132.295,-10.327
      134.208,-25.205
      136.121,-40.082
      138.034,-54.960
      139.948,-69.837
      141.861,-84.715
      152.230,-97.420
      146.159,-112.654
      129.894,-114.746
      120.166,-101.543
      126.983,-86.628
      125.070,-71.751
      123.157,-56.873
      121.244,-41.996
      119.330,-27.118
      117.417,-12.241
      115.504,2.637
      113.591,17.514
      111.678,32.392
      109.765,47.269
      102.267,47.085
      102.636,32.089
      103.005,17.094
      103.374,2.099
      103.742,-12.897
      96.564,-26.068
      88.747,-13.266
    " />
    <g style="stroke: black; stroke-width: 1" id="pairs">
      <line id="4,20" x1="79.774" y1="46.532" x2="64.820" y2="47.711" />
      <line id="5,19" x1="78.594" y1="31.578" x2="63.641" y2="32.757" />
      <line id="6,18" x1="77.415" y1="16.624" x2="62.461" y2="17.804" />
      <line id="7,17" x1="76.236" y1=" 1.671" x2="61.282" y2=" 2.850" />
      <line id="8,16" x1="75.056" y1="-13.283" x2="60.103" y2="-12.103" />
      <line id="23,285" x1="30.098" y1="90.268" x2="22.121" y2="102.971" />
      <line id="24,284" x1="17.395" y1="82.291" x2=" 9.418" y2="94.993" />
      <line id="25,283" x1=" 4.693" y1="74.313" x2="-3.285" y2="87.016" />
      <line id="26,282" x1="-8.010" y1="66.336" x2="-15.988" y2="79.038" />
      <line id="27,281" x1="-20.713" y1="58.358" x2="-28.690" y2="71.061" />
      <line id="28,280" x1="-33.416" y1="50.381" x2="-41.393" y2="63.083" />
      <line id="29,279" x1="-46.118" y1="42.403" x2="-54.096" y2="55.106" />
      <line id="30,278" x1="-58.821" y1="34.426" x2="-66.798" y2="47.128" />
      <line id="31,277" x1="-71.524" y1="26.448" x2="-79.501" y2="39.151" />
      <line id="33,223" x1="-98.665" y1="-9.753" x2="-108.682" y2=" 1.412" />
      <line id="34,222" x1="-109.830" y1="-19.771" x2="-119.847" y2="-8.606" />
      <line id="35,221" x1="-120.994" y1="-29.788" x2="-131.012" y2="-18.623" />
      <line id="36,220" x1="-132.159" y1="-39.805" x2="-142.176" y2="-28.641" />
      <line id="37,219" x1="-143.324" y1="-49.823" x2="-153.341" y2="-38.658" />
      <line id="38,218" x1="-154.488" y1="-59.840" x2="-164.506" y2="-48.676" />
      <line id="39,216" x1="-165.637" y1="-69.876" x2="-175.691" y2="-58.744" />
      <line id="40,215" x1="-176.768" y1="-79.930" x2="-186.822" y2="-68.798" />
      <line id="45,179" x1="-203.200" y1="-126.776" x2="-214.332" y2="-116.722" />
      <line id="46,178" x1="-213.254" y1="-137.908" x2="-224.386" y2="-127.854" />
      <line id="47,177" x1="-223.309" y1="-149.039" x2="-234.440" y2="-138.985" />
      <line id="49,176" x1="-233.414" y1="-160.191" x2="-244.513" y2="-150.101" />
      <line id="50,175" x1="-243.504" y1="-171.290" x2="-254.603" y2="-161.199" />
      <line id="51,174" x1="-253.595" y1="-182.389" x2="-264.693" y2="-172.298" />
      <line id="54,61" x1="-261.421" y1="-256.095" x2="-275.367" y2="-250.572" />
      <line id="55,60" x1="-266.945" y1="-270.041" x2="-280.891" y2="-264.518" />
      <line id="68,157" x1="-300.825" y1="-234.700" x2="-311.924" y2="-224.610" />
      <line id="69,156" x1="-310.915" y1="-245.799" x2="-322.014" y2="-235.708" />
      <line id="70,155" x1="-321.006" y1="-256.898" x2="-332.105" y2="-246.807" />
      <line id="78,106" x1="-330.337" y1="-331.066" x2="-342.689" y2="-322.554" />
      <line id="79,105" x1="-338.849" y1="-343.417" x2="-351.200" y2="-334.905" />
      <line id="80,104" x1="-347.361" y1="-355.768" x2="-359.712" y2="-347.257" />
      <line id="82,102" x1="-362.413" y1="-377.611" x2="-374.765" y2="-369.100" />
      <line id="84,100" x1="-377.466" y1="-399.454" x2="-389.817" y2="-390.943" />
      <line id="85,99" x1="-385.978" y1="-411.805" x2="-398.329" y2="-403.294" />
      <line id="86,98" x1="-394.489" y1="-424.157" x2="-406.841" y2="-415.645" />
      <line id="87,97" x1="-403.001" y1="-436.508" x2="-415.352" y2="-427.996" />
      <line id="111,136" x1="-365.504" y1="-303.074" x2="-375.846" y2="-292.210" />
      <line id="113,134" x1="-384.717" y1="-321.365" x2="-395.060" y2="-310.501" />
      <line id="114,132" x1="-395.565" y1="-331.726" x2="-405.943" y2="-320.895" />
      <line id="115,131" x1="-406.395" y1="-342.104" x2="-416.773" y2="-331.273" />
      <line id="139,152" x1="-394.911" y1="-269.047" x2="-403.584" y2="-256.809" />
      <line id="143,149" x1="-428.361" y1="-292.672" x2="-436.994" y2="-280.405" />
      <line id="144,148" x1="-440.628" y1="-301.305" x2="-449.260" y2="-289.038" />
      <line id="161,168" x1="-330.375" y1="-200.955" x2="-337.459" y2="-187.733" />
      <line id="162,167" x1="-343.596" y1="-208.039" x2="-350.681" y2="-194.818" />
      <line id="188,213" x1="-229.911" y1="-91.084" x2="-233.706" y2="-76.572" />
      <line id="190,211" x1="-255.575" y1="-97.795" x2="-259.370" y2="-83.283" />
      <line id="191,210" x1="-270.087" y1="-101.590" x2="-273.882" y2="-87.078" />
      <line id="195,208" x1="-302.445" y1="-109.945" x2="-306.145" y2="-95.409" />
      <line id="197,206" x1="-328.153" y1="-116.488" x2="-331.853" y2="-101.952" />
      <line id="198,205" x1="-342.690" y1="-120.188" x2="-346.390" y2="-105.652" />
      <line id="199,204" x1="-357.226" y1="-123.888" x2="-360.926" y2="-109.351" />
      <line id="230,275" x1="-118.205" y1="29.860" x2="-116.928" y2="44.806" />
      <line id="231,274" x1="-133.151" y1="31.138" x2="-131.873" y2="46.083" />
      <line id="232,273" x1="-148.096" y1="32.415" x2="-146.819" y2="47.360" />
      <line id="233,272" x1="-163.042" y1="33.692" x2="-161.764" y2="48.638" />
      <line id="234,271" x1="-177.987" y1="34.970" x2="-176.710" y2="49.915" />
      <line id="235,256" x1="-192.958" y1="35.904" x2="-192.368" y2="50.892" />
      <line id="236,255" x1="-207.946" y1="36.494" x2="-207.356" y2="51.482" />
      <line id="237,254" x1="-222.935" y1="37.084" x2="-222.345" y2="52.072" />
      <line id="291,488" x1="45.429" y1="211.518" x2="57.918" y2="219.826" />
      <line id="292,487" x1="37.121" y1="224.007" x2="49.610" y2="232.315" />
      <line id="293,486" x1="28.813" y1="236.496" x2="41.302" y2="244.804" />
      <line id="294,485" x1="20.505" y1="248.985" x2="32.994" y2="257.293" />
      <line id="301,406" x1="-26.555" y1="245.842" x2="-16.356" y2="256.841" />
      <line id="302,405" x1="-37.554" y1="256.041" x2="-27.355" y2="267.040" />
      <line id="303,404" x1="-48.553" y1="266.241" x2="-38.354" y2="277.240" />
      <line id="304,403" x1="-59.552" y1="276.440" x2="-49.353" y2="287.439" />
      <line id="305,402" x1="-70.551" y1="286.639" x2="-60.352" y2="297.638" />
      <line id="306,401" x1="-81.550" y1="296.838" x2="-71.351" y2="307.837" />
      <line id="308,398" x1="-104.034" y1="317.623" x2="-93.871" y2="328.655" />
      <line id="309,397" x1="-115.066" y1="327.786" x2="-104.903" y2="338.818" />
      <line id="322,391" x1="-179.051" y1="388.091" x2="-168.638" y2="398.887" />
      <line id="323,390" x1="-189.847" y1="398.504" x2="-179.434" y2="409.301" />
      <line id="324,389" x1="-200.644" y1="408.918" x2="-190.230" y2="419.714" />
      <line id="325,388" x1="-211.440" y1="419.332" x2="-201.026" y2="430.128" />
      <line id="326,387" x1="-222.236" y1="429.745" x2="-211.822" y2="440.541" />
      <line id="327,386" x1="-233.032" y1="440.159" x2="-222.619" y2="450.955" />
      <line id="328,385" x1="-243.828" y1="450.572" x2="-233.415" y2="461.368" />
      <line id="334,362" x1="-287.029" y1="431.702" x2="-277.233" y2="443.062" />
      <line id="335,361" x1="-298.389" y1="441.498" x2="-288.593" y2="452.858" />
      <line id="337,359" x1="-318.478" y1="458.822" x2="-308.682" y2="470.182" />
      <line id="338,358" x1="-329.838" y1="468.618" x2="-320.042" y2="479.978" />
      <line id="339,357" x1="-341.198" y1="478.414" x2="-331.402" y2="489.774" />
      <line id="341,354" x1="-364.416" y1="498.374" x2="-354.658" y2="509.766" />
      <line id="342,353" x1="-375.808" y1="508.133" x2="-366.049" y2="519.524" />
      <line id="343,352" x1="-387.200" y1="517.891" x2="-377.441" y2="529.283" />
      <line id="344,351" x1="-398.591" y1="527.650" x2="-388.833" y2="539.041" />
      <line id="377,384" x1="-255.336" y1="463.568" x2="-243.359" y2="472.599" />
      <line id="378,383" x1="-264.366" y1="475.546" x2="-252.389" y2="484.576" />
      <line id="411,452" x1=" 8.944" y1="272.963" x2="23.222" y2="277.560" />
      <line id="412,451" x1=" 4.346" y1="287.240" x2="18.624" y2="291.838" />
      <line id="413,450" x1="-0.252" y1="301.518" x2="14.026" y2="306.116" />
      <line id="414,449" x1="-4.849" y1="315.796" x2=" 9.429" y2="320.394" />
      <line id="415,448" x1="-9.447" y1="330.074" x2=" 4.831" y2="334.672" />
      <line id="416,447" x1="-14.045" y1="344.352" x2=" 0.233" y2="348.950" />
      <line id="420,446" x1="-18.617" y1="358.793" x2="-4.295" y2="363.251" />
      <line id="421,445" x1="-23.074" y1="373.116" x2="-8.752" y2="377.573" />
      <line id="425,441" x1="-36.902" y1="417.552" x2="-22.580" y2="422.009" />
      <line id="426,440" x1="-41.360" y1="431.874" x2="-27.037" y2="436.331" />
      <line id="427,439" x1="-45.817" y1="446.197" x2="-31.494" y2="450.654" />
      <line id="428,438" x1="-50.274" y1="460.519" x2="-35.951" y2="464.976" />
      <line id="490,517" x1="106.557" y1="230.353" x2="121.364" y2="227.954" />
      <line id="491,516" x1="108.957" y1="245.160" x2="123.764" y2="242.760" />
      <line id="492,515" x1="111.357" y1="259.967" x2="126.164" y2="257.567" />
      <line id="499,510" x1="121.878" y1="323.574" x2="136.668" y2="321.077" />
      <line id="500,509" x1="124.375" y1="338.365" x2="139.165" y2="335.867" />
      <line id="501,508" x1="126.872" y1="353.155" x2="141.662" y2="350.658" />
      <line id="502,507" x1="129.369" y1="367.946" x2="144.159" y2="365.449" />
      <line id="526,835" x1="182.708" y1="171.814" x2="186.408" y2="157.277" />
      <line id="527,834" x1="197.244" y1="175.514" x2="200.944" y2="160.977" />
      <line id="528,832" x1="211.775" y1="179.237" x2="215.522" y2="164.713" />
      <line id="529,831" x1="226.299" y1="182.985" x2="230.047" y2="168.461" />
      <line id="531,830" x1="240.877" y1="186.721" x2="244.577" y2="172.184" />
      <line id="532,829" x1="255.414" y1="190.421" x2="259.114" y2="175.884" />
      <line id="533,828" x1="269.950" y1="194.120" x2="273.650" y2="179.584" />
      <line id="534,827" x1="284.487" y1="197.820" x2="288.187" y2="183.284" />
      <line id="535,826" x1="299.023" y1="201.520" x2="302.723" y2="186.984" />
      <line id="536,825" x1="313.560" y1="205.220" x2="317.260" y2="190.683" />
      <line id="537,824" x1="328.096" y1="208.920" x2="331.796" y2="194.383" />
      <line id="538,823" x1="342.633" y1="212.620" x2="346.333" y2="198.083" />
      <line id="546,782" x1="458.260" y1="248.785" x2="463.509" y2="234.733" />
      <line id="547,781" x1="472.312" y1="254.033" x2="477.561" y2="239.981" />
      <line id="548,780" x1="486.364" y1="259.281" x2="491.613" y2="245.229" />
      <line id="549,779" x1="500.416" y1="264.529" x2="505.664" y2="250.477" />
      <line id="550,778" x1="514.468" y1="269.778" x2="519.716" y2="255.726" />
      <line id="553,719" x1="537.701" y1="357.974" x2="545.427" y2="345.117" />
      <line id="554,718" x1="550.558" y1="365.700" x2="558.284" y2="352.843" />
      <line id="555,717" x1="563.415" y1="373.426" x2="571.141" y2="360.569" />
      <line id="556,716" x1="576.273" y1="381.152" x2="583.999" y2="368.295" />
      <line id="557,715" x1="589.130" y1="388.878" x2="596.856" y2="376.021" />
      <line id="558,714" x1="601.987" y1="396.604" x2="609.713" y2="383.747" />
      <line id="559,713" x1="614.844" y1="404.330" x2="622.570" y2="391.473" />
      <line id="560,712" x1="627.702" y1="412.056" x2="635.428" y2="399.199" />
      <line id="561,710" x1="640.546" y1="419.803" x2="648.314" y2="406.971" />
      <line id="562,709" x1="653.378" y1="427.571" x2="661.146" y2="414.740" />
      <line id="566,581" x1="677.118" y1="471.835" x2="689.328" y2="463.122" />
      <line id="567,580" x1="685.831" y1="484.045" x2="698.041" y2="475.332" />
      <line id="568,579" x1="694.544" y1="496.255" x2="706.754" y2="487.542" />
      <line id="569,578" x1="703.257" y1="508.465" x2="715.467" y2="499.752" />
      <line id="590,706" x1="708.807" y1="440.307" x2="715.499" y2="426.882" />
      <line id="591,705" x1="722.232" y1="446.998" x2="728.924" y2="433.573" />
      <line id="592,704" x1="735.657" y1="453.689" x2="742.349" y2="440.264" />
      <line id="593,703" x1="749.082" y1="460.380" x2="755.773" y2="446.956" />
      <line id="594,702" x1="762.507" y1="467.072" x2="769.198" y2="453.647" />
      <line id="595,701" x1="775.932" y1="473.763" x2="782.623" y2="460.338" />
      <line id="596,700" x1="789.357" y1="480.454" x2="796.048" y2="467.029" />
      <line id="608,695" x1="858.497" y1="513.940" x2="864.878" y2="500.365" />
      <line id="609,694" x1="872.072" y1="520.321" x2="878.453" y2="506.746" />
      <line id="611,693" x1="885.702" y1="526.701" x2="892.039" y2="513.105" />
      <line id="612,692" x1="899.298" y1="533.038" x2="905.634" y2="519.442" />
      <line id="615,691" x1="913.003" y1="539.371" x2="919.251" y2="525.734" />
      <line id="616,690" x1="926.641" y1="545.619" x2="932.888" y2="531.982" />
      <line id="617,689" x1="940.278" y1="551.866" x2="946.525" y2="538.229" />
      <line id="618,688" x1="953.915" y1="558.114" x2="960.162" y2="544.477" />
      <line id="619,684" x1="967.521" y1="564.428" x2="973.902" y2="550.853" />
      <line id="620,683" x1="981.096" y1="570.809" x2="987.477" y2="557.234" />
      <line id="621,682" x1="994.671" y1="577.191" x2="1001.052" y2="563.616" />
      <line id="622,680" x1="1008.235" y1="583.594" x2="1014.661" y2="570.040" />
      <line id="624,678" x1="1032.205" y1="594.958" x2="1038.631" y2="581.404" />
      <line id="629,657" x1="1082.465" y1="642.618" x2="1089.593" y2="629.420" />
      <line id="630,656" x1="1095.663" y1="649.746" x2="1102.791" y2="636.547" />
      <line id="635,644" x1="1132.191" y1="694.736" x2="1139.620" y2="681.705" />
      <line id="636,643" x1="1145.222" y1="702.165" x2="1152.651" y2="689.133" />
      <line id="637,642" x1="1158.253" y1="709.594" x2="1165.682" y2="696.562" />
      <line id="647,652" x1="1153.615" y1="655.169" x2="1160.174" y2="641.679" />
      <line id="663,672" x1="1101.684" y1="601.964" x2="1106.608" y2="587.795" />
      <line id="664,671" x1="1115.853" y1="606.888" x2="1120.777" y2="592.720" />
      <line id="665,670" x1="1130.021" y1="611.813" x2="1134.946" y2="597.644" />
      <line id="725,737" x1="552.253" y1="315.904" x2="551.025" y2="300.954" />
      <line id="726,736" x1="567.203" y1="314.675" x2="565.974" y2="299.726" />
      <line id="727,735" x1="582.152" y1="313.447" x2="580.924" y2="298.497" />
      <line id="728,734" x1="597.102" y1="312.219" x2="595.874" y2="297.269" />
      <line id="729,733" x1="612.052" y1="310.990" x2="610.823" y2="296.041" />
      <line id="748,767" x1="545.982" y1="271.381" x2="542.187" y2="256.869" />
      <line id="749,766" x1="560.494" y1="267.586" x2="556.699" y2="253.074" />
      <line id="750,765" x1="575.006" y1="263.791" x2="571.211" y2="249.279" />
      <line id="751,764" x1="589.518" y1="259.996" x2="585.723" y2="245.484" />
      <line id="753,762" x1="615.183" y1="253.284" x2="611.388" y2="238.772" />
      <line id="754,761" x1="629.695" y1="249.489" x2="625.899" y2="234.977" />
      <line id="788,810" x1="460.224" y1="196.300" x2="452.667" y2="183.343" />
      <line id="789,809" x1="473.181" y1="188.743" x2="465.625" y2="175.786" />
      <line id="791,807" x1="496.097" y1="175.379" x2="488.540" y2="162.422" />
      <line id="792,806" x1="509.054" y1="167.823" x2="501.497" y2="154.865" />
      <line id="793,805" x1="522.012" y1="160.266" x2="514.455" y2="147.308" />
      <line id="794,804" x1="534.969" y1="152.709" x2="527.412" y2="139.752" />
      <line id="850,910" x1="166.201" y1="65.955" x2="153.122" y2="58.612" />
      <line id="851,909" x1="173.545" y1="52.876" x2="160.465" y2="45.532" />
      <line id="852,908" x1="180.888" y1="39.796" x2="167.808" y2="32.453" />
      <line id="854,906" x1="193.874" y1="16.665" x2="180.795" y2=" 9.321" />
      <line id="855,905" x1="201.218" y1=" 3.585" x2="188.138" y2="-3.758" />
      <line id="927,950" x1="124.642" y1="49.183" x2="109.765" y2="47.269" />
      <line id="928,949" x1="126.555" y1="34.305" x2="111.678" y2="32.392" />
      <line id="929,948" x1="128.468" y1="19.428" x2="113.591" y2="17.514" />
      <line id="930,947" x1="130.382" y1=" 4.550" x2="115.504" y2=" 2.637" />
      <line id="931,946" x1="132.295" y1="-10.327" x2="117.417" y2="-12.241" />
      <line id="932,945" x1="134.208" y1="-25.205" x2="119.330" y2="-27.118" />
      <line id="933,944" x1="136.121" y1="-40.082" x2="121.244" y2="-41.996" />
      <line id="934,943" x1="138.034" y1="-54.960" x2="123.157" y2="-56.873" />
      <line id="935,942" x1="139.948" y1="-69.837" x2="125.070" y2="-71.751" />
      <line id="936,941" x1="141.861" y1="-84.715" x2="126.983" y2="-86.628" />
    </g>
    <g style="font-family: SansSerif" transform="translate(-4.6, 4)" id="seq">
      <text x="88.009" y="16.725">U</text>
      <text x="87.640" y="31.721">A</text>
      <text x="87.271" y="46.716">C</text>
      <text x="79.774" y="46.532">A</text>
      <text x="78.594" y="31.578">G</text>
      <text x="77.415" y="16.624">G</text>
      <text x="76.236" y="1.671">U</text>
      <text x="75.056" y="-13.283">U</text>
      <text x="86.334" y="-24.115">U</text>
      <text x="87.959" y="-39.668">G</text>
      <text x="79.164" y="-52.598">G</text>
      <text x="64.101" y="-56.799">U</text>
      <text x="49.883" y="-50.289">C</text>
      <text x="43.223" y="-36.140">C</text>
      <text x="47.266" y="-21.034">C</text>
      <text x="60.103" y="-12.103">A</text>
      <text x="61.282" y="2.850">G</text>
      <text x="62.461" y="17.804">C</text>
      <text x="63.641" y="32.757">C</text>
      <text x="64.820" y="47.711">U</text>
      <text x="49.851" y="60.082">U</text>
      <text x="38.203" y="74.532">C</text>
      <text x="30.098" y="90.268">U</text>
      <text x="17.395" y="82.291">U</text>
      <text x="4.693" y="74.313">A</text>
      <text x="-8.010" y="66.336">U</text>
      <text x="-20.713" y="58.358">U</text>
      <text x="-33.416" y="50.381">A</text>
      <text x="-46.118" y="42.403">G</text>
      <text x="-58.821" y="34.426">U</text>
      <text x="-71.524" y="26.448">U</text>
      <text x="-72.531" y="3.702">C</text>
      <text x="-98.665" y="-9.753">C</text>
      <text x="-109.830" y="-19.771">U</text>
      <text x="-120.994" y="-29.788">A</text>
      <text x="-132.159" y="-39.805">G</text>
      <text x="-143.324" y="-49.823">U</text>
      <text x="-154.488" y="-59.840">A</text>
      <text x="-165.637" y="-69.876">A</text>
      <text x="-176.768" y="-79.930">A</text>
      <text x="-172.055" y="-89.822">A</text>
      <text x="-172.033" y="-101.849">U</text>
      <text x="-177.584" y="-113.717">U</text>
      <text x="-188.460" y="-122.818">A</text>
      <text x="-203.200" y="-126.776">U</text>
      <text x="-213.254" y="-137.908">A</text>
      <text x="-223.309" y="-149.039">C</text>
      <text x="-226.677" y="-157.390">A</text>
      <text x="-233.414" y="-160.191">U</text>
      <text x="-243.504" y="-171.290">G</text>
      <text x="-253.595" y="-182.389">C</text>
      <text x="-238.961" y="-200.744">A</text>
      <text x="-239.554" y="-229.596">A</text>
      <text x="-261.421" y="-256.095">G</text>
      <text x="-266.945" y="-270.041">U</text>
      <text x="-264.017" y="-286.177">A</text>
      <text x="-276.701" y="-296.572">U</text>
      <text x="-291.948" y="-290.533">C</text>
      <text x="-294.073" y="-274.273">C</text>
      <text x="-280.891" y="-264.518">G</text>
      <text x="-275.367" y="-250.572">C</text>
      <text x="-281.732" y="-246.604">C</text>
      <text x="-289.667" y="-259.333">C</text>
      <text x="-297.603" y="-272.061">U</text>
      <text x="-310.332" y="-264.125">C</text>
      <text x="-302.396" y="-251.397">C</text>
      <text x="-294.460" y="-238.668">A</text>
      <text x="-300.825" y="-234.700">G</text>
      <text x="-310.915" y="-245.799">U</text>
      <text x="-321.006" y="-256.898">G</text>
      <text x="-314.356" y="-261.973">A</text>
      <text x="-308.876" y="-269.307">G</text>
      <text x="-305.266" y="-278.588">A</text>
      <text x="-304.129" y="-289.299">A</text>
      <text x="-305.923" y="-300.752">U</text>
      <text x="-310.910" y="-312.129">G</text>
      <text x="-319.120" y="-322.535">C</text>
      <text x="-330.337" y="-331.066">C</text>
      <text x="-338.849" y="-343.417">C</text>
      <text x="-347.361" y="-355.768">U</text>
      <text x="-348.820" y="-371.522">C</text>
      <text x="-362.413" y="-377.611">U</text>
      <text x="-363.873" y="-393.365">A</text>
      <text x="-377.466" y="-399.454">G</text>
      <text x="-385.978" y="-411.805">G</text>
      <text x="-394.489" y="-424.157">U</text>
      <text x="-403.001" y="-436.508">C</text>
      <text x="-396.953" y="-450.700">C</text>
      <text x="-399.560" y="-465.906">U</text>
      <text x="-409.991" y="-477.272">A</text>
      <text x="-424.917" y="-481.173">A</text>
      <text x="-439.575" y="-476.363">C</text>
      <text x="-449.288" y="-464.378">U</text>
      <text x="-450.957" y="-449.041">A</text>
      <text x="-444.049" y="-435.247">U</text>
      <text x="-430.768" y="-427.397">A</text>
      <text x="-415.352" y="-427.996">G</text>
      <text x="-406.841" y="-415.645">A</text>
      <text x="-398.329" y="-403.294">C</text>
      <text x="-389.817" y="-390.943">C</text>
      <text x="-388.966" y="-376.072">A</text>
      <text x="-374.765" y="-369.100">A</text>
      <text x="-373.914" y="-354.229">A</text>
      <text x="-359.712" y="-347.257">A</text>
      <text x="-351.200" y="-334.905">G</text>
      <text x="-342.689" y="-322.554">G</text>
      <text x="-348.392" y="-317.684">A</text>
      <text x="-358.132" y="-329.092">G</text>
      <text x="-369.540" y="-319.352">C</text>
      <text x="-359.800" y="-307.944">A</text>
      <text x="-365.504" y="-303.074">G</text>
      <text x="-370.164" y="-318.194">A</text>
      <text x="-384.717" y="-321.365">C</text>
      <text x="-395.565" y="-331.726">A</text>
      <text x="-406.395" y="-342.104">U</text>
      <text x="-400.534" y="-356.104">C</text>
      <text x="-400.131" y="-371.277">A</text>
      <text x="-405.240" y="-385.569">A</text>
      <text x="-415.170" y="-397.048">G</text>
      <text x="-428.577" y="-404.161">A</text>
      <text x="-443.650" y="-405.947">A</text>
      <text x="-458.348" y="-402.164">C</text>
      <text x="-470.685" y="-393.323">A</text>
      <text x="-478.992" y="-380.620">C</text>
      <text x="-482.146" y="-365.774">U</text>
      <text x="-479.720" y="-350.791">A</text>
      <text x="-472.041" y="-337.699">A</text>
      <text x="-460.150" y="-328.267">A</text>
      <text x="-445.653" y="-323.772">A</text>
      <text x="-430.511" y="-324.822">A</text>
      <text x="-416.773" y="-331.273">G</text>
      <text x="-405.943" y="-320.895">U</text>
      <text x="-403.320" y="-314.088">A</text>
      <text x="-395.060" y="-310.501">G</text>
      <text x="-391.177" y="-296.121">C</text>
      <text x="-375.846" y="-292.210">U</text>
      <text x="-380.613" y="-286.419">C</text>
      <text x="-390.145" y="-274.838">A</text>
      <text x="-394.911" y="-269.047">U</text>
      <text x="-395.613" y="-282.422">A</text>
      <text x="-403.739" y="-292.823">A</text>
      <text x="-416.175" y="-296.628">C</text>
      <text x="-428.361" y="-292.672">G</text>
      <text x="-440.628" y="-301.305">U</text>
      <text x="-450.101" y="-315.365">C</text>
      <text x="-466.234" y="-310.154">U</text>
      <text x="-465.693" y="-293.209">U</text>
      <text x="-449.260" y="-289.038">G</text>
      <text x="-436.994" y="-280.405">C</text>
      <text x="-434.778" y="-263.676">U</text>
      <text x="-420.838" y="-253.577">C</text>
      <text x="-403.584" y="-256.809">A</text>
      <text x="-378.209" y="-235.196">A</text>
      <text x="-350.394" y="-233.659">C</text>
      <text x="-332.105" y="-246.807">C</text>
      <text x="-322.014" y="-235.708">A</text>
      <text x="-311.924" y="-224.610">C</text>
      <text x="-316.536" y="-218.696">G</text>
      <text x="-331.392" y="-220.772">C</text>
      <text x="-325.762" y="-206.868">C</text>
      <text x="-330.375" y="-200.955">C</text>
      <text x="-343.596" y="-208.039">C</text>
      <text x="-351.777" y="-222.252">C</text>
      <text x="-368.174" y="-222.003">A</text>
      <text x="-375.920" y="-207.548">C</text>
      <text x="-367.045" y="-193.757">G</text>
      <text x="-350.681" y="-194.818">G</text>
      <text x="-337.459" y="-187.733">G</text>
      <text x="-326.945" y="-172.858">A</text>
      <text x="-313.292" y="-163.054">C</text>
      <text x="-298.508" y="-158.707">A</text>
      <text x="-284.504" y="-159.493">C</text>
      <text x="-272.870" y="-164.479">A</text>
      <text x="-264.693" y="-172.298">G</text>
      <text x="-254.603" y="-161.199">C</text>
      <text x="-244.513" y="-150.101">A</text>
      <text x="-234.440" y="-138.985">G</text>
      <text x="-224.386" y="-127.854">U</text>
      <text x="-214.332" y="-116.722">A</text>
      <text x="-218.227" y="-110.312">A</text>
      <text x="-231.046" y="-118.101">U</text>
      <text x="-243.865" y="-125.891">A</text>
      <text x="-256.684" y="-133.680">A</text>
      <text x="-264.473" y="-120.860">A</text>
      <text x="-251.654" y="-113.072">A</text>
      <text x="-238.835" y="-105.282">C</text>
      <text x="-226.016" y="-97.493">U</text>
      <text x="-229.911" y="-91.084">U</text>
      <text x="-241.304" y="-102.061">A</text>
      <text x="-255.575" y="-97.795">A</text>
      <text x="-270.087" y="-101.590">G</text>
      <text x="-274.947" y="-111.142">C</text>
      <text x="-284.037" y="-116.396">A</text>
      <text x="-294.304" y="-115.860">A</text>
      <text x="-302.445" y="-109.945">U</text>
      <text x="-313.911" y="-120.847">A</text>
      <text x="-328.153" y="-116.488">A</text>
      <text x="-342.690" y="-120.188">A</text>
      <text x="-357.226" y="-123.888">C</text>
      <text x="-368.583" y="-135.718">G</text>
      <text x="-384.440" y="-131.536">A</text>
      <text x="-388.485" y="-115.644">A</text>
      <text x="-376.557" y="-104.390">A</text>
      <text x="-360.926" y="-109.351">G</text>
      <text x="-346.390" y="-105.652">U</text>
      <text x="-331.853" y="-101.952">U</text>
      <text x="-321.427" y="-91.314">C</text>
      <text x="-306.145" y="-95.409">G</text>
      <text x="-293.177" y="-80.969">A</text>
      <text x="-273.882" y="-87.078">C</text>
      <text x="-259.370" y="-83.283">U</text>
      <text x="-249.015" y="-72.578">A</text>
      <text x="-233.706" y="-76.572">A</text>
      <text x="-209.206" y="-60.840">G</text>
      <text x="-186.822" y="-68.798">U</text>
      <text x="-175.691" y="-58.744">U</text>
      <text x="-172.868" y="-52.017">A</text>
      <text x="-164.506" y="-48.676">U</text>
      <text x="-153.341" y="-38.658">A</text>
      <text x="-142.176" y="-28.641">C</text>
      <text x="-131.012" y="-18.623">U</text>
      <text x="-119.847" y="-8.606">A</text>
      <text x="-108.682" y="1.412">G</text>
      <text x="-111.063" y="8.524">A</text>
      <text x="-125.287" y="3.762">C</text>
      <text x="-139.512" y="-0.999">U</text>
      <text x="-144.273" y="13.226">U</text>
      <text x="-130.049" y="17.987">C</text>
      <text x="-115.824" y="22.748">A</text>
      <text x="-118.205" y="29.860">G</text>
      <text x="-133.151" y="31.138">G</text>
      <text x="-148.096" y="32.415">G</text>
      <text x="-163.042" y="33.692">U</text>
      <text x="-177.987" y="34.970">U</text>
      <text x="-192.958" y="35.904">G</text>
      <text x="-207.946" y="36.494">G</text>
      <text x="-222.935" y="37.084">U</text>
      <text x="-228.653" y="23.045">A</text>
      <text x="-238.829" y="11.811">A</text>
      <text x="-252.236" y="4.738">A</text>
      <text x="-267.254" y="2.680">U</text>
      <text x="-282.070" y="5.885">U</text>
      <text x="-294.894" y="13.967">U</text>
      <text x="-304.178" y="25.949">C</text>
      <text x="-308.801" y="40.385">G</text>
      <text x="-308.205" y="55.532">U</text>
      <text x="-302.461" y="69.560">G</text>
      <text x="-292.264" y="80.776">C</text>
      <text x="-278.844" y="87.824">C</text>
      <text x="-263.822" y="89.855">A</text>
      <text x="-249.012" y="86.622">G</text>
      <text x="-236.203" y="78.517">C</text>
      <text x="-226.941" y="66.517">U</text>
      <text x="-222.345" y="52.072">A</text>
      <text x="-207.356" y="51.482">C</text>
      <text x="-192.368" y="50.892">C</text>
      <text x="-205.789" y="57.591">G</text>
      <text x="-215.637" y="68.905">C</text>
      <text x="-220.423" y="83.121">G</text>
      <text x="-219.421" y="98.088">G</text>
      <text x="-212.783" y="111.539">U</text>
      <text x="-201.514" y="121.440">C</text>
      <text x="-187.320" y="126.290">A</text>
      <text x="-172.349" y="125.357">U</text>
      <text x="-158.868" y="118.780">A</text>
      <text x="-148.916" y="107.557">C</text>
      <text x="-144.001" y="93.385">G</text>
      <text x="-144.866" y="78.410">A</text>
      <text x="-151.380" y="64.899">U</text>
      <text x="-162.558" y="54.896">U</text>
      <text x="-176.710" y="49.915">A</text>
      <text x="-161.764" y="48.638">A</text>
      <text x="-146.819" y="47.360">C</text>
      <text x="-131.873" y="46.083">C</text>
      <text x="-116.928" y="44.806">C</text>
      <text x="-94.294" y="49.703">A</text>
      <text x="-79.501" y="39.151">A</text>
      <text x="-66.798" y="47.128">A</text>
      <text x="-54.096" y="55.106">C</text>
      <text x="-41.393" y="63.083">U</text>
      <text x="-28.690" y="71.061">A</text>
      <text x="-15.988" y="79.038">A</text>
      <text x="-3.285" y="87.016">U</text>
      <text x="9.418" y="94.993">A</text>
      <text x="22.121" y="102.971">A</text>
      <text x="15.065" y="121.682">U</text>
      <text x="12.438" y="141.506">A</text>
      <text x="14.376" y="161.410">U</text>
      <text x="20.780" y="180.354">C</text>
      <text x="31.313" y="197.353">C</text>
      <text x="45.429" y="211.518">G</text>
      <text x="37.121" y="224.007">G</text>
      <text x="28.813" y="236.496">C</text>
      <text x="20.505" y="248.985">G</text>
      <text x="16.848" y="244.544">U</text>
      <text x="11.719" y="240.884">A</text>
      <text x="5.304" y="238.394">A</text>
      <text x="-2.119" y="237.414">A</text>
      <text x="-10.192" y="238.218">G</text>
      <text x="-18.493" y="240.996">C</text>
      <text x="-26.555" y="245.842">G</text>
      <text x="-37.554" y="256.041">U</text>
      <text x="-48.553" y="266.241">G</text>
      <text x="-59.552" y="276.440">U</text>
      <text x="-70.551" y="286.639">U</text>
      <text x="-81.550" y="296.838">U</text>
      <text x="-99.640" y="300.577">A</text>
      <text x="-104.034" y="317.623">A</text>
      <text x="-115.066" y="327.786">A</text>
      <text x="-123.381" y="322.749">C</text>
      <text x="-132.576" y="319.627">U</text>
      <text x="-142.218" y="318.564">G</text>
      <text x="-151.852" y="319.603">U</text>
      <text x="-161.024" y="322.693">A</text>
      <text x="-169.306" y="327.683">C</text>
      <text x="-176.308" y="334.334">U</text>
      <text x="-181.706" y="342.331">C</text>
      <text x="-185.247" y="351.293">A</text>
      <text x="-186.771" y="360.798">A</text>
      <text x="-186.210" y="370.397">A</text>
      <text x="-183.594" y="379.640">C</text>
      <text x="-179.051" y="388.091">U</text>
      <text x="-189.847" y="398.504">A</text>
      <text x="-200.644" y="408.918">A</text>
      <text x="-211.440" y="419.332">A</text>
      <text x="-222.236" y="429.745">G</text>
      <text x="-233.032" y="440.159">U</text>
      <text x="-243.828" y="450.572">U</text>
      <text x="-238.115" y="436.703">A</text>
      <text x="-241.523" y="422.095">A</text>
      <text x="-252.782" y="412.184">A</text>
      <text x="-267.705" y="410.659">A</text>
      <text x="-280.737" y="418.086">C</text>
      <text x="-287.029" y="431.702">C</text>
      <text x="-298.389" y="441.498">U</text>
      <text x="-313.893" y="444.651">C</text>
      <text x="-318.478" y="458.822">A</text>
      <text x="-329.838" y="468.618">C</text>
      <text x="-341.198" y="478.414">U</text>
      <text x="-359.410" y="481.498">A</text>
      <text x="-364.416" y="498.374">A</text>
      <text x="-375.808" y="508.133">G</text>
      <text x="-387.200" y="517.891">C</text>
      <text x="-398.591" y="527.650">U</text>
      <text x="-414.328" y="526.183">G</text>
      <text x="-426.438" y="536.337">U</text>
      <text x="-427.738" y="552.088">A</text>
      <text x="-417.456" y="564.091">A</text>
      <text x="-401.693" y="565.224">A</text>
      <text x="-389.800" y="554.816">A</text>
      <text x="-388.833" y="539.041">A</text>
      <text x="-377.441" y="529.283">G</text>
      <text x="-366.049" y="519.524">C</text>
      <text x="-354.658" y="509.766">U</text>
      <text x="-342.658" y="510.402">A</text>
      <text x="-333.101" y="502.475">C</text>
      <text x="-331.402" y="489.774">A</text>
      <text x="-320.042" y="479.978">G</text>
      <text x="-308.682" y="470.182">U</text>
      <text x="-293.991" y="467.730">C</text>
      <text x="-288.593" y="452.858">A</text>
      <text x="-277.233" y="443.062">G</text>
      <text x="-271.759" y="448.189">C</text>
      <text x="-282.012" y="459.137">C</text>
      <text x="-292.265" y="470.086">C</text>
      <text x="-302.518" y="481.035">U</text>
      <text x="-312.772" y="491.983">A</text>
      <text x="-323.025" y="502.932">A</text>
      <text x="-333.278" y="513.881">A</text>
      <text x="-322.329" y="524.134">A</text>
      <text x="-312.076" y="513.185">U</text>
      <text x="-301.823" y="502.236">A</text>
      <text x="-291.570" y="491.288">A</text>
      <text x="-281.317" y="480.339">U</text>
      <text x="-271.063" y="469.390">C</text>
      <text x="-260.810" y="458.442">U</text>
      <text x="-255.336" y="463.568">A</text>
      <text x="-264.366" y="475.546">C</text>
      <text x="-279.666" y="481.448">G</text>
      <text x="-281.937" y="497.689">A</text>
      <text x="-268.843" y="507.562">A</text>
      <text x="-253.854" y="500.909">A</text>
      <text x="-252.389" y="484.576">G</text>
      <text x="-243.359" y="472.599">U</text>
      <text x="-233.415" y="461.368">G</text>
      <text x="-222.619" y="450.955">A</text>
      <text x="-211.822" y="440.541">C</text>
      <text x="-201.026" y="430.128">U</text>
      <text x="-190.230" y="419.714">U</text>
      <text x="-179.434" y="409.301">U</text>
      <text x="-168.638" y="398.887">A</text>
      <text x="-149.971" y="406.918">A</text>
      <text x="-129.634" y="405.757">U</text>
      <text x="-111.919" y="395.604">A</text>
      <text x="-100.583" y="378.564">C</text>
      <text x="-98.052" y="358.206">U</text>
      <text x="-104.903" y="338.818">U</text>
      <text x="-93.871" y="328.655">U</text>
      <text x="-81.856" y="328.858">G</text>
      <text x="-72.591" y="320.592">A</text>
      <text x="-71.351" y="307.837">A</text>
      <text x="-60.352" y="297.638">G</text>
      <text x="-49.353" y="287.439">A</text>
      <text x="-38.354" y="277.240">C</text>
      <text x="-27.355" y="267.040">A</text>
      <text x="-16.356" y="256.841">C</text>
      <text x="-10.031" y="260.872">G</text>
      <text x="-18.092" y="273.522">A</text>
      <text x="-5.441" y="281.582">C</text>
      <text x="2.619" y="268.932">A</text>
      <text x="8.944" y="272.963">G</text>
      <text x="4.346" y="287.240">C</text>
      <text x="-0.252" y="301.518">U</text>
      <text x="-4.849" y="315.796">A</text>
      <text x="-9.447" y="330.074">A</text>
      <text x="-14.045" y="344.352">G</text>
      <text x="-17.724" y="347.696">A</text>
      <text x="-19.641" y="351.699">C</text>
      <text x="-19.833" y="355.610">C</text>
      <text x="-18.617" y="358.793">C</text>
      <text x="-23.074" y="373.116">A</text>
      <text x="-37.622" y="378.183">A</text>
      <text x="-46.295" y="390.698">A</text>
      <text x="-45.940" y="405.742">C</text>
      <text x="-36.902" y="417.552">U</text>
      <text x="-41.360" y="431.874">G</text>
      <text x="-45.817" y="446.197">G</text>
      <text x="-50.274" y="460.519">G</text>
      <text x="-65.171" y="464.528">A</text>
      <text x="-75.520" y="475.969">U</text>
      <text x="-78.017" y="491.193">U</text>
      <text x="-71.867" y="505.341">A</text>
      <text x="-59.031" y="513.899">G</text>
      <text x="-43.605" y="514.136">A</text>
      <text x="-30.512" y="505.976">U</text>
      <text x="-23.930" y="492.024">A</text>
      <text x="-25.959" y="476.730">C</text>
      <text x="-35.951" y="464.976">C</text>
      <text x="-31.494" y="450.654">C</text>
      <text x="-27.037" y="436.331">C</text>
      <text x="-22.580" y="422.009">A</text>
      <text x="-8.437" y="417.413">C</text>
      <text x="0.392" y="405.227">U</text>
      <text x="0.352" y="390.000">A</text>
      <text x="-8.752" y="377.573">U</text>
      <text x="-4.295" y="363.251">G</text>
      <text x="0.233" y="348.950">C</text>
      <text x="4.831" y="334.672">U</text>
      <text x="9.429" y="320.394">U</text>
      <text x="14.026" y="306.116">A</text>
      <text x="18.624" y="291.838">G</text>
      <text x="23.222" y="277.560">C</text>
      <text x="19.928" y="292.194">C</text>
      <text x="19.339" y="307.183">A</text>
      <text x="21.474" y="322.030">U</text>
      <text x="26.263" y="336.245">A</text>
      <text x="33.547" y="349.358">A</text>
      <text x="43.085" y="360.935">A</text>
      <text x="54.562" y="370.593">U</text>
      <text x="67.598" y="378.012">A</text>
      <text x="81.763" y="382.948">U</text>
      <text x="96.587" y="385.238">A</text>
      <text x="111.581" y="384.804">A</text>
      <text x="126.248" y="381.663">A</text>
      <text x="140.104" y="375.917">U</text>
      <text x="152.690" y="367.756">G</text>
      <text x="163.590" y="357.452">A</text>
      <text x="172.444" y="345.343">A</text>
      <text x="178.958" y="331.832">U</text>
      <text x="182.918" y="317.364">A</text>
      <text x="184.192" y="302.418">U</text>
      <text x="182.738" y="287.489">A</text>
      <text x="178.605" y="273.069">A</text>
      <text x="171.928" y="259.637">A</text>
      <text x="162.929" y="247.636">C</text>
      <text x="151.906" y="237.464">A</text>
      <text x="139.222" y="229.455">A</text>
      <text x="125.298" y="223.877">A</text>
      <text x="110.594" y="220.912">U</text>
      <text x="95.596" y="220.659">U</text>
      <text x="80.801" y="223.127">U</text>
      <text x="66.697" y="228.233">A</text>
      <text x="53.751" y="235.809">U</text>
      <text x="42.391" y="245.605">U</text>
      <text x="32.994" y="257.293">C</text>
      <text x="41.302" y="244.804">G</text>
      <text x="49.610" y="232.315">C</text>
      <text x="57.918" y="219.826">C</text>
      <text x="81.474" y="228.617">A</text>
      <text x="106.557" y="230.353">G</text>
      <text x="108.957" y="245.160">A</text>
      <text x="111.357" y="259.967">G</text>
      <text x="100.728" y="267.053">C</text>
      <text x="93.559" y="277.569">A</text>
      <text x="90.866" y="289.960">C</text>
      <text x="93.009" y="302.412">U</text>
      <text x="99.640" y="313.112">A</text>
      <text x="109.762" y="320.516">C</text>
      <text x="121.878" y="323.574">A</text>
      <text x="124.375" y="338.365">A</text>
      <text x="126.872" y="353.155">G</text>
      <text x="129.369" y="367.946">C</text>
      <text x="123.144" y="383.118">A</text>
      <text x="133.383" y="395.927">A</text>
      <text x="149.553" y="393.197">U</text>
      <text x="155.020" y="377.736">A</text>
      <text x="144.159" y="365.449">G</text>
      <text x="141.662" y="350.658">C</text>
      <text x="139.165" y="335.867">U</text>
      <text x="136.668" y="321.077">U</text>
      <text x="150.380" y="310.494">A</text>
      <text x="156.804" y="294.313">A</text>
      <text x="154.058" y="277.030">A</text>
      <text x="142.819" y="263.499">A</text>
      <text x="126.164" y="257.567">C</text>
      <text x="123.764" y="242.760">U</text>
      <text x="121.364" y="227.954">C</text>
      <text x="130.552" y="225.097">A</text>
      <text x="139.372" y="221.250">A</text>
      <text x="147.717" y="216.458">A</text>
      <text x="155.485" y="210.780">G</text>
      <text x="162.584" y="204.283">G</text>
      <text x="168.927" y="197.047">A</text>
      <text x="174.438" y="189.159">C</text>
      <text x="179.050" y="180.714">U</text>
      <text x="182.708" y="171.814">U</text>
      <text x="197.244" y="175.514">G</text>
      <text x="211.775" y="179.237">G</text>
      <text x="226.299" y="182.985">C</text>
      <text x="233.713" y="188.097">G</text>
      <text x="240.877" y="186.721">G</text>
      <text x="255.414" y="190.421">U</text>
      <text x="269.950" y="194.120">G</text>
      <text x="284.487" y="197.820">C</text>
      <text x="299.023" y="201.520">U</text>
      <text x="313.560" y="205.220">U</text>
      <text x="328.096" y="208.920">C</text>
      <text x="342.633" y="212.620">A</text>
      <text x="343.691" y="234.005">C</text>
      <text x="351.984" y="253.724">A</text>
      <text x="366.500" y="269.410">U</text>
      <text x="385.484" y="279.184">C</text>
      <text x="406.645" y="281.882">C</text>
      <text x="427.435" y="277.194">C</text>
      <text x="445.357" y="265.697">U</text>
      <text x="458.260" y="248.785">C</text>
      <text x="472.312" y="254.033">U</text>
      <text x="486.364" y="259.281">A</text>
      <text x="500.416" y="264.529">G</text>
      <text x="514.468" y="269.778">A</text>
      <text x="498.019" y="291.829">G</text>
      <text x="503.516" y="327.339">G</text>
      <text x="537.701" y="357.974">A</text>
      <text x="550.558" y="365.700">G</text>
      <text x="563.415" y="373.426">C</text>
      <text x="576.273" y="381.152">C</text>
      <text x="589.130" y="388.878">U</text>
      <text x="601.987" y="396.604">G</text>
      <text x="614.844" y="404.330">U</text>
      <text x="627.702" y="412.056">U</text>
      <text x="640.546" y="419.803">C</text>
      <text x="653.378" y="427.571">U</text>
      <text x="650.010" y="439.469">A</text>
      <text x="652.725" y="452.952">U</text>
      <text x="662.115" y="464.842">A</text>
      <text x="677.118" y="471.835">A</text>
      <text x="685.831" y="484.045">U</text>
      <text x="694.544" y="496.255">C</text>
      <text x="703.257" y="508.465">G</text>
      <text x="698.209" y="523.138">A</text>
      <text x="702.781" y="537.966">U</text>
      <text x="715.216" y="547.247">A</text>
      <text x="730.733" y="547.413">A</text>
      <text x="743.363" y="538.400">A</text>
      <text x="748.252" y="523.673">C</text>
      <text x="743.519" y="508.896">C</text>
      <text x="730.984" y="499.750">C</text>
      <text x="715.467" y="499.752">C</text>
      <text x="706.754" y="487.542">G</text>
      <text x="698.041" y="475.332">A</text>
      <text x="689.328" y="463.122">U</text>
      <text x="694.198" y="457.418">U</text>
      <text x="705.605" y="467.158">A</text>
      <text x="717.013" y="476.898">A</text>
      <text x="728.421" y="486.638">C</text>
      <text x="738.160" y="475.230">C</text>
      <text x="726.753" y="465.490">U</text>
      <text x="715.345" y="455.750">U</text>
      <text x="703.938" y="446.011">A</text>
      <text x="708.807" y="440.307">C</text>
      <text x="722.232" y="446.998">C</text>
      <text x="735.657" y="453.689">A</text>
      <text x="749.082" y="460.380">C</text>
      <text x="762.507" y="467.072">C</text>
      <text x="775.932" y="473.763">U</text>
      <text x="789.357" y="480.454">U</text>
      <text x="788.010" y="489.451">U</text>
      <text x="788.762" y="498.504">U</text>
      <text x="791.566" y="507.129">G</text>
      <text x="796.268" y="514.869">C</text>
      <text x="802.611" y="521.313">U</text>
      <text x="810.251" y="526.123">A</text>
      <text x="818.778" y="529.047">A</text>
      <text x="827.734" y="529.935">U</text>
      <text x="836.642" y="528.746">U</text>
      <text x="845.026" y="525.550">C</text>
      <text x="852.442" y="520.524">A</text>
      <text x="858.497" y="513.940">G</text>
      <text x="872.072" y="520.321">U</text>
      <text x="878.406" y="526.721">C</text>
      <text x="885.702" y="526.701">U</text>
      <text x="899.298" y="533.038">A</text>
      <text x="903.272" y="538.065">U</text>
      <text x="908.402" y="540.116">A</text>
      <text x="913.003" y="539.371">U</text>
      <text x="926.641" y="545.619">A</text>
      <text x="940.278" y="551.866">C</text>
      <text x="953.915" y="558.114">C</text>
      <text x="967.521" y="564.428">G</text>
      <text x="981.096" y="570.809">C</text>
      <text x="994.671" y="577.191">C</text>
      <text x="1008.235" y="583.594">A</text>
      <text x="1017.390" y="596.498">U</text>
      <text x="1032.205" y="594.958">C</text>
      <text x="1030.147" y="609.987">U</text>
      <text x="1035.087" y="625.316">U</text>
      <text x="1046.812" y="637.686">C</text>
      <text x="1063.603" y="644.121">A</text>
      <text x="1082.465" y="642.618">G</text>
      <text x="1095.663" y="649.746">C</text>
      <text x="1093.024" y="661.362">A</text>
      <text x="1095.571" y="674.005">A</text>
      <text x="1103.626" y="685.315">A</text>
      <text x="1116.432" y="692.883">C</text>
      <text x="1132.191" y="694.736">C</text>
      <text x="1145.222" y="702.165">C</text>
      <text x="1158.253" y="709.594">U</text>
      <text x="1166.058" y="724.016">A</text>
      <text x="1182.457" y="724.197">A</text>
      <text x="1190.578" y="709.950">U</text>
      <text x="1182.069" y="695.932">A</text>
      <text x="1165.682" y="696.562">A</text>
      <text x="1152.651" y="689.133">G</text>
      <text x="1139.620" y="681.705">G</text>
      <text x="1143.118" y="675.071">C</text>
      <text x="1150.116" y="661.803">C</text>
      <text x="1153.615" y="655.169">C</text>
      <text x="1162.349" y="669.049">U</text>
      <text x="1178.724" y="668.155">A</text>
      <text x="1185.894" y="653.406">A</text>
      <text x="1176.484" y="639.976">A</text>
      <text x="1160.174" y="641.679">G</text>
      <text x="1146.698" y="627.699">U</text>
      <text x="1129.542" y="622.630">A</text>
      <text x="1113.614" y="626.386">A</text>
      <text x="1102.791" y="636.547">G</text>
      <text x="1089.593" y="629.420">C</text>
      <text x="1092.616" y="622.556">A</text>
      <text x="1106.343" y="628.601">C</text>
      <text x="1121.255" y="626.973">A</text>
      <text x="1112.389" y="614.874">A</text>
      <text x="1098.661" y="608.828">G</text>
      <text x="1101.684" y="601.964">U</text>
      <text x="1115.853" y="606.888">A</text>
      <text x="1130.021" y="611.813">U</text>
      <text x="1140.329" y="624.567">A</text>
      <text x="1156.485" y="621.751">A</text>
      <text x="1161.868" y="606.260">A</text>
      <text x="1150.942" y="594.032">C</text>
      <text x="1134.946" y="597.644">A</text>
      <text x="1120.777" y="592.720">U</text>
      <text x="1106.608" y="587.795">A</text>
      <text x="1097.571" y="575.227">A</text>
      <text x="1085.200" y="567.026">A</text>
      <text x="1071.345" y="563.885">A</text>
      <text x="1057.909" y="565.779">A</text>
      <text x="1046.581" y="572.021">C</text>
      <text x="1038.631" y="581.404">G</text>
      <text x="1030.445" y="568.961">U</text>
      <text x="1014.661" y="570.040">U</text>
      <text x="1010.022" y="564.410">A</text>
      <text x="1001.052" y="563.616">G</text>
      <text x="987.477" y="557.234">G</text>
      <text x="973.902" y="550.853">U</text>
      <text x="972.375" y="547.807">C</text>
      <text x="969.360" y="545.308">A</text>
      <text x="965.112" y="544.020">A</text>
      <text x="960.162" y="544.477">G</text>
      <text x="946.525" y="538.229">G</text>
      <text x="932.888" y="531.982">U</text>
      <text x="919.251" y="525.734">G</text>
      <text x="905.634" y="519.442">U</text>
      <text x="892.039" y="513.105">A</text>
      <text x="878.453" y="506.746">A</text>
      <text x="864.878" y="500.365">C</text>
      <text x="864.414" y="479.449">C</text>
      <text x="853.106" y="461.755">U</text>
      <text x="834.180" y="452.480">A</text>
      <text x="813.113" y="454.397">U</text>
      <text x="796.048" y="467.029">G</text>
      <text x="782.623" y="460.338">A</text>
      <text x="769.198" y="453.647">G</text>
      <text x="755.773" y="446.956">G</text>
      <text x="742.349" y="440.264">U</text>
      <text x="728.924" y="433.573">G</text>
      <text x="715.499" y="426.882">G</text>
      <text x="699.401" y="407.455">A</text>
      <text x="677.352" y="404.083">A</text>
      <text x="661.146" y="414.740">A</text>
      <text x="648.314" y="406.971">G</text>
      <text x="644.271" y="400.899">U</text>
      <text x="635.428" y="399.199">A</text>
      <text x="622.570" y="391.473">A</text>
      <text x="609.713" y="383.747">U</text>
      <text x="596.856" y="376.021">G</text>
      <text x="583.999" y="368.295">G</text>
      <text x="571.141" y="360.569">G</text>
      <text x="558.284" y="352.843">C</text>
      <text x="545.427" y="345.117">U</text>
      <text x="547.134" y="337.813">A</text>
      <text x="561.740" y="341.227">C</text>
      <text x="576.096" y="336.879">A</text>
      <text x="565.153" y="326.620">U</text>
      <text x="550.547" y="323.207">U</text>
      <text x="552.253" y="315.904">C</text>
      <text x="567.203" y="314.675">U</text>
      <text x="582.152" y="313.447">C</text>
      <text x="597.102" y="312.219">U</text>
      <text x="612.052" y="310.990">A</text>
      <text x="628.333" y="315.719">C</text>
      <text x="637.384" y="301.383">U</text>
      <text x="626.114" y="288.717">U</text>
      <text x="610.823" y="296.041">U</text>
      <text x="595.874" y="297.269">A</text>
      <text x="580.924" y="298.497">G</text>
      <text x="565.974" y="299.726">A</text>
      <text x="551.025" y="300.954">G</text>
      <text x="549.764" y="293.561">C</text>
      <text x="564.551" y="291.039">A</text>
      <text x="579.337" y="288.518">C</text>
      <text x="594.124" y="285.997">C</text>
      <text x="608.911" y="283.475">A</text>
      <text x="606.389" y="268.689">C</text>
      <text x="591.603" y="271.210">G</text>
      <text x="576.816" y="273.732">A</text>
      <text x="562.030" y="276.253">A</text>
      <text x="547.243" y="278.774">U</text>
      <text x="545.982" y="271.381">A</text>
      <text x="560.494" y="267.586">C</text>
      <text x="575.006" y="263.791">U</text>
      <text x="589.518" y="259.996">U</text>
      <text x="604.827" y="263.990">C</text>
      <text x="615.183" y="253.284">U</text>
      <text x="629.695" y="249.489">A</text>
      <text x="643.205" y="257.688">U</text>
      <text x="658.537" y="253.852">G</text>
      <text x="666.593" y="240.255">A</text>
      <text x="662.595" y="224.965">A</text>
      <text x="648.913" y="217.053">A</text>
      <text x="633.666" y="221.213">A</text>
      <text x="625.899" y="234.977">U</text>
      <text x="611.388" y="238.772">A</text>
      <text x="597.117" y="234.506">A</text>
      <text x="585.723" y="245.484">A</text>
      <text x="571.211" y="249.279">A</text>
      <text x="556.699" y="253.074">G</text>
      <text x="542.187" y="256.869">U</text>
      <text x="554.720" y="248.627">U</text>
      <text x="561.744" y="235.373">A</text>
      <text x="561.526" y="220.375">A</text>
      <text x="554.120" y="207.330">A</text>
      <text x="541.353" y="199.456">G</text>
      <text x="526.372" y="198.695">G</text>
      <text x="512.872" y="205.233">A</text>
      <text x="504.181" y="217.458">G</text>
      <text x="502.443" y="232.357">G</text>
      <text x="508.085" y="246.256">A</text>
      <text x="519.716" y="255.726">U</text>
      <text x="505.664" y="250.477">U</text>
      <text x="491.613" y="245.229">U</text>
      <text x="477.561" y="239.981">A</text>
      <text x="463.509" y="234.733">G</text>
      <text x="464.688" y="228.303">C</text>
      <text x="465.177" y="221.785">A</text>
      <text x="464.968" y="215.251">G</text>
      <text x="464.065" y="208.777">U</text>
      <text x="462.477" y="202.436">A</text>
      <text x="460.224" y="196.300">A</text>
      <text x="473.181" y="188.743">A</text>
      <text x="489.000" y="188.475">C</text>
      <text x="496.097" y="175.379">C</text>
      <text x="509.054" y="167.823">A</text>
      <text x="522.012" y="160.266">A</text>
      <text x="534.969" y="152.709">G</text>
      <text x="548.665" y="159.810">A</text>
      <text x="564.024" y="158.356">A</text>
      <text x="576.144" y="148.811">U</text>
      <text x="581.159" y="134.221">A</text>
      <text x="577.467" y="119.242">G</text>
      <text x="566.247" y="108.653">A</text>
      <text x="551.080" y="105.834">G</text>
      <text x="536.804" y="111.683">A</text>
      <text x="527.976" y="124.335">G</text>
      <text x="527.412" y="139.752">C</text>
      <text x="514.455" y="147.308">U</text>
      <text x="501.497" y="154.865">U</text>
      <text x="488.540" y="162.422">G</text>
      <text x="473.648" y="162.150">A</text>
      <text x="465.625" y="175.786">U</text>
      <text x="452.667" y="183.343">U</text>
      <text x="446.016" y="175.891">G</text>
      <text x="438.239" y="169.613">A</text>
      <text x="429.541" y="164.680">A</text>
      <text x="420.152" y="161.221">A</text>
      <text x="410.320" y="159.332">A</text>
      <text x="400.306" y="159.064">A</text>
      <text x="390.376" y="160.427">A</text>
      <text x="380.794" y="163.385">G</text>
      <text x="371.814" y="167.862">G</text>
      <text x="363.675" y="173.741">C</text>
      <text x="356.594" y="180.867">C</text>
      <text x="350.762" y="189.053">A</text>
      <text x="346.333" y="198.083">U</text>
      <text x="331.796" y="194.383">G</text>
      <text x="317.260" y="190.683">A</text>
      <text x="302.723" y="186.984">A</text>
      <text x="288.187" y="183.284">G</text>
      <text x="273.650" y="179.584">C</text>
      <text x="259.114" y="175.884">A</text>
      <text x="244.577" y="172.184">C</text>
      <text x="230.047" y="168.461">G</text>
      <text x="215.522" y="164.713">C</text>
      <text x="209.902" y="160.061">A</text>
      <text x="200.944" y="160.977">C</text>
      <text x="186.408" y="157.277">A</text>
      <text x="188.110" y="151.435">C</text>
      <text x="189.413" y="145.427">A</text>
      <text x="190.302" y="139.280">C</text>
      <text x="190.765" y="133.023">C</text>
      <text x="190.791" y="126.686">G</text>
      <text x="190.371" y="120.299">C</text>
      <text x="189.498" y="113.895">C</text>
      <text x="188.169" y="107.505">C</text>
      <text x="186.380" y="101.162">G</text>
      <text x="184.133" y="94.900">U</text>
      <text x="181.430" y="88.751">C</text>
      <text x="178.277" y="82.750">A</text>
      <text x="174.680" y="76.928">C</text>
      <text x="170.651" y="71.319">C</text>
      <text x="166.201" y="65.955">C</text>
      <text x="173.545" y="52.876">U</text>
      <text x="180.888" y="39.796">C</text>
      <text x="194.390" y="31.550">C</text>
      <text x="193.874" y="16.665">U</text>
      <text x="201.218" y="3.585">C</text>
      <text x="215.118" y="9.274">A</text>
      <text x="229.612" y="13.211">A</text>
      <text x="244.480" y="15.337">A</text>
      <text x="259.497" y="15.620">U</text>
      <text x="274.434" y="14.056">G</text>
      <text x="289.066" y="10.667">C</text>
      <text x="303.171" y="5.506">A</text>
      <text x="316.535" y="-1.349">A</text>
      <text x="328.955" y="-9.794">C</text>
      <text x="340.243" y="-19.702">C</text>
      <text x="350.227" y="-30.922">C</text>
      <text x="358.758" y="-43.284">A</text>
      <text x="365.704" y="-56.600">U</text>
      <text x="370.961" y="-70.669">A</text>
      <text x="374.450" y="-85.278">U</text>
      <text x="376.117" y="-100.204">A</text>
      <text x="375.936" y="-115.222">A</text>
      <text x="373.912" y="-130.105">C</text>
      <text x="370.074" y="-144.625">A</text>
      <text x="364.481" y="-158.564">A</text>
      <text x="357.217" y="-171.710">G</text>
      <text x="348.392" y="-183.864">U</text>
      <text x="338.141" y="-194.841">A</text>
      <text x="326.619" y="-204.475">C</text>
      <text x="314.000" y="-212.620">C</text>
      <text x="300.476" y="-219.152">U</text>
      <text x="286.251" y="-223.973">A</text>
      <text x="271.542" y="-227.010">A</text>
      <text x="256.571" y="-228.215">U</text>
      <text x="241.565" y="-227.572">A</text>
      <text x="226.753" y="-225.090">A</text>
      <text x="212.357" y="-220.806">U</text>
      <text x="198.598" y="-214.785">C</text>
      <text x="185.682" y="-207.119">A</text>
      <text x="173.806" y="-197.924">G</text>
      <text x="163.150" y="-187.340">A</text>
      <text x="153.876" y="-175.526">U</text>
      <text x="146.124" y="-162.662">U</text>
      <text x="140.012" y="-148.942">A</text>
      <text x="135.632" y="-134.576">U</text>
      <text x="133.050" y="-119.780">A</text>
      <text x="132.307" y="-104.779">A</text>
      <text x="133.413" y="-89.801">U</text>
      <text x="136.350" y="-75.072">G</text>
      <text x="141.076" y="-60.815">C</text>
      <text x="147.518" y="-47.247">A</text>
      <text x="155.579" y="-34.574">U</text>
      <text x="165.135" y="-22.988">A</text>
      <text x="176.044" y="-12.664">A</text>
      <text x="188.138" y="-3.758">G</text>
      <text x="180.795" y="9.321">A</text>
      <text x="167.817" y="16.632">U</text>
      <text x="167.808" y="32.453">G</text>
      <text x="160.465" y="45.532">A</text>
      <text x="153.122" y="58.612">G</text>
      <text x="146.002" y="56.255">A</text>
      <text x="150.716" y="42.015">U</text>
      <text x="155.431" y="27.775">A</text>
      <text x="160.146" y="13.535">A</text>
      <text x="164.861" y="-0.704">G</text>
      <text x="169.575" y="-14.944">U</text>
      <text x="174.290" y="-29.184">C</text>
      <text x="179.005" y="-43.424">G</text>
      <text x="164.765" y="-48.138">U</text>
      <text x="160.050" y="-33.899">A</text>
      <text x="155.336" y="-19.659">A</text>
      <text x="150.621" y="-5.419">C</text>
      <text x="145.906" y="8.821">A</text>
      <text x="141.191" y="23.060">A</text>
      <text x="136.477" y="37.300">G</text>
      <text x="131.762" y="51.540">G</text>
      <text x="124.642" y="49.183">U</text>
      <text x="126.555" y="34.305">A</text>
      <text x="128.468" y="19.428">A</text>
      <text x="130.382" y="4.550">G</text>
      <text x="132.295" y="-10.327">C</text>
      <text x="134.208" y="-25.205">A</text>
      <text x="136.121" y="-40.082">U</text>
      <text x="138.034" y="-54.960">A</text>
      <text x="139.948" y="-69.837">C</text>
      <text x="141.861" y="-84.715">U</text>
      <text x="152.230" y="-97.420">G</text>
      <text x="146.159" y="-112.654">G</text>
      <text x="129.894" y="-114.746">A</text>
      <text x="120.166" y="-101.543">A</text>
      <text x="126.983" y="-86.628">A</text>
      <text x="125.070" y="-71.751">G</text>
      <text x="123.157" y="-56.873">U</text>
      <text x="121.244" y="-41.996">G</text>
      <text x="119.330" y="-27.118">U</text>
      <text x="117.417" y="-12.241">G</text>
      <text x="115.504" y="2.637">C</text>
      <text x="113.591" y="17.514">U</text>
      <text x="111.678" y="32.392">U</text>
      <text x="109.765" y="47.269">G</text>
      <text x="102.267" y="47.085">G</text>
      <text x="102.636" y="32.089">A</text>
      <text x="103.005" y="17.094">A</text>
      <text x="103.374" y="2.099">U</text>
      <text x="103.742" y="-12.897">A</text>
      <text x="96.564" y="-26.068">A</text>
      <text x="88.747" y="-13.266">A</text>
    </g>
  </g>
</svg>
